<mxfile host="Electron" modified="2023-12-27T02:54:44.944Z" agent="Mozilla/5.0 (Windows NT 10.0; Win64; x64) AppleWebKit/537.36 (KHTML, like Gecko) draw.io/21.2.8 Chrome/112.0.5615.165 Electron/24.2.0 Safari/537.36" etag="XEMlY9ooI7lx1vV0dpm8" version="21.2.8" type="device">
  <diagram name="Страница 1" id="eBCzCQWFth1_u-ZQtIkf">
    <mxGraphModel dx="360" dy="434" grid="1" gridSize="10" guides="1" tooltips="1" connect="1" arrows="1" fold="1" page="1" pageScale="1" pageWidth="827" pageHeight="1169" math="0" shadow="0">
      <root>
        <mxCell id="0" />
        <mxCell id="1" parent="0" />
        <mxCell id="Nsetz0EIdP9xMARCvk30-1" value="" style="ellipse;whiteSpace=wrap;html=1;aspect=fixed;fillColor=none;strokeWidth=0.7;fontFamily=Times New Roman;" vertex="1" parent="1">
          <mxGeometry x="360" y="280" width="240" height="240" as="geometry" />
        </mxCell>
        <mxCell id="Nsetz0EIdP9xMARCvk30-3" value="" style="endArrow=none;html=1;rounded=0;fontFamily=Times New Roman;" edge="1" parent="1">
          <mxGeometry width="50" height="50" relative="1" as="geometry">
            <mxPoint x="390" y="520" as="sourcePoint" />
            <mxPoint x="390" y="280" as="targetPoint" />
          </mxGeometry>
        </mxCell>
        <mxCell id="Nsetz0EIdP9xMARCvk30-4" value="" style="endArrow=classicThin;html=1;rounded=0;endFill=1;fontFamily=Times New Roman;" edge="1" parent="1">
          <mxGeometry width="50" height="50" relative="1" as="geometry">
            <mxPoint x="480" y="400" as="sourcePoint" />
            <mxPoint x="390" y="320" as="targetPoint" />
          </mxGeometry>
        </mxCell>
        <mxCell id="Nsetz0EIdP9xMARCvk30-6" value="R" style="text;html=1;strokeColor=none;fillColor=none;align=center;verticalAlign=middle;whiteSpace=wrap;rounded=0;fontFamily=Times New Roman;" vertex="1" parent="1">
          <mxGeometry x="388" y="310" width="60" height="30" as="geometry" />
        </mxCell>
        <mxCell id="Nsetz0EIdP9xMARCvk30-7" value="" style="endArrow=classicThin;startArrow=classicThin;html=1;rounded=0;endFill=1;fontFamily=Times New Roman;startFill=1;" edge="1" parent="1">
          <mxGeometry width="50" height="50" relative="1" as="geometry">
            <mxPoint x="390" y="480" as="sourcePoint" />
            <mxPoint x="390" y="320" as="targetPoint" />
          </mxGeometry>
        </mxCell>
        <mxCell id="Nsetz0EIdP9xMARCvk30-8" value="d" style="text;html=1;strokeColor=none;fillColor=none;align=center;verticalAlign=middle;whiteSpace=wrap;rounded=0;fontFamily=Times New Roman;" vertex="1" parent="1">
          <mxGeometry x="368" y="428" width="60" height="30" as="geometry" />
        </mxCell>
        <mxCell id="Nsetz0EIdP9xMARCvk30-9" value="" style="endArrow=classicThin;html=1;rounded=0;endFill=1;fontFamily=Times New Roman;" edge="1" parent="1">
          <mxGeometry width="50" height="50" relative="1" as="geometry">
            <mxPoint x="220" y="400" as="sourcePoint" />
            <mxPoint x="640" y="290" as="targetPoint" />
          </mxGeometry>
        </mxCell>
        <mxCell id="Nsetz0EIdP9xMARCvk30-10" value="" style="endArrow=classicThin;html=1;rounded=0;endFill=1;fontFamily=Times New Roman;" edge="1" parent="1">
          <mxGeometry width="50" height="50" relative="1" as="geometry">
            <mxPoint x="390" y="399.71" as="sourcePoint" />
            <mxPoint x="310" y="399.71" as="targetPoint" />
          </mxGeometry>
        </mxCell>
        <mxCell id="Nsetz0EIdP9xMARCvk30-11" value="n" style="text;html=1;align=center;verticalAlign=middle;resizable=0;points=[];autosize=1;strokeColor=none;fillColor=none;fontFamily=Times New Roman;" vertex="1" parent="1">
          <mxGeometry x="305" y="398" width="30" height="30" as="geometry" />
        </mxCell>
        <mxCell id="Nsetz0EIdP9xMARCvk30-12" value="L" style="text;html=1;align=center;verticalAlign=middle;resizable=0;points=[];autosize=1;strokeColor=none;fillColor=none;fontFamily=Times New Roman;" vertex="1" parent="1">
          <mxGeometry x="590" y="270" width="30" height="30" as="geometry" />
        </mxCell>
        <mxCell id="Nsetz0EIdP9xMARCvk30-13" value="" style="endArrow=none;html=1;rounded=0;strokeWidth=0.7;fontFamily=Times New Roman;" edge="1" parent="1">
          <mxGeometry width="50" height="50" relative="1" as="geometry">
            <mxPoint x="360" y="399.66" as="sourcePoint" />
            <mxPoint x="480" y="399.66" as="targetPoint" />
          </mxGeometry>
        </mxCell>
        <mxCell id="Nsetz0EIdP9xMARCvk30-19" value="" style="endArrow=classicThin;html=1;rounded=0;endFill=1;fillColor=#d5e8d4;strokeColor=#000000;fontFamily=Times New Roman;" edge="1" parent="1">
          <mxGeometry width="50" height="50" relative="1" as="geometry">
            <mxPoint x="390" y="400.5" as="sourcePoint" />
            <mxPoint x="367" y="362" as="targetPoint" />
          </mxGeometry>
        </mxCell>
        <mxCell id="Nsetz0EIdP9xMARCvk30-20" value="H" style="text;html=1;align=center;verticalAlign=middle;resizable=0;points=[];autosize=1;strokeColor=none;fillColor=none;fontFamily=Times New Roman;" vertex="1" parent="1">
          <mxGeometry x="354" y="365" width="30" height="30" as="geometry" />
        </mxCell>
        <mxCell id="Nsetz0EIdP9xMARCvk30-23" value="P" style="text;html=1;strokeColor=none;fillColor=none;align=center;verticalAlign=middle;whiteSpace=wrap;rounded=0;fontFamily=Times New Roman;" vertex="1" parent="1">
          <mxGeometry x="328" y="340" width="60" height="30" as="geometry" />
        </mxCell>
        <mxCell id="Nsetz0EIdP9xMARCvk30-24" value="С&lt;span style=&quot;font-size: 10px;&quot;&gt;&lt;sub&gt;l&lt;/sub&gt;&lt;/span&gt;" style="text;html=1;strokeColor=none;fillColor=none;align=center;verticalAlign=middle;whiteSpace=wrap;rounded=0;fontFamily=Times New Roman;" vertex="1" parent="1">
          <mxGeometry x="370" y="376" width="60" height="30" as="geometry" />
        </mxCell>
        <mxCell id="Nsetz0EIdP9xMARCvk30-25" value="C&lt;span style=&quot;font-size: 10px;&quot;&gt;&lt;sub&gt;s&lt;/sub&gt;&lt;/span&gt;" style="text;html=1;align=center;verticalAlign=middle;resizable=0;points=[];autosize=1;strokeColor=none;fillColor=none;fontFamily=Times New Roman;" vertex="1" parent="1">
          <mxGeometry x="475" y="376" width="30" height="30" as="geometry" />
        </mxCell>
        <mxCell id="Nsetz0EIdP9xMARCvk30-27" value="A" style="text;html=1;align=center;verticalAlign=middle;resizable=0;points=[];autosize=1;strokeColor=none;fillColor=none;fontFamily=Times New Roman;" vertex="1" parent="1">
          <mxGeometry x="365" y="298" width="30" height="30" as="geometry" />
        </mxCell>
        <mxCell id="Nsetz0EIdP9xMARCvk30-28" value="B" style="text;html=1;align=center;verticalAlign=middle;resizable=0;points=[];autosize=1;strokeColor=none;fillColor=none;fontFamily=Times New Roman;" vertex="1" parent="1">
          <mxGeometry x="365" y="468" width="30" height="30" as="geometry" />
        </mxCell>
        <mxCell id="Nsetz0EIdP9xMARCvk30-29" value="O" style="text;html=1;align=center;verticalAlign=middle;resizable=0;points=[];autosize=1;strokeColor=none;fillColor=none;fontFamily=Times New Roman;" vertex="1" parent="1">
          <mxGeometry x="185" y="378" width="30" height="30" as="geometry" />
        </mxCell>
      </root>
    </mxGraphModel>
  </diagram>
</mxfile>
